<mxfile host="app.diagrams.net" agent="Mozilla/5.0 (Windows NT 10.0; Win64; x64; rv:140.0) Gecko/20100101 Firefox/140.0" version="28.2.7">
  <diagram name="Page-1" id="FYnqeeudnjavl254Vnvo">
    <mxGraphModel dx="2116" dy="844" grid="1" gridSize="10" guides="1" tooltips="1" connect="1" arrows="1" fold="1" page="1" pageScale="1" pageWidth="850" pageHeight="1100" math="0" shadow="0">
      <root>
        <mxCell id="0" />
        <mxCell id="1" parent="0" />
        <mxCell id="Ld6S8iu637Xuf0fFWyp5-32" value="&lt;div&gt;&lt;b&gt;&lt;font style=&quot;font-size: 18px;&quot;&gt;Client Request Timeout&lt;/font&gt;&lt;/b&gt;&lt;/div&gt;&lt;div&gt;&lt;b&gt;&lt;font style=&quot;font-size: 18px;&quot;&gt;&lt;br&gt;&lt;/font&gt;&lt;/b&gt;&lt;/div&gt;&lt;div&gt;&lt;font style=&quot;font-size: 13px;&quot;&gt;A client request timeout generally refers to a situation where a client (&lt;b&gt;such as a web browser, API consumer, or any software making a request&lt;/b&gt;) waits for a response from a server but does not&amp;nbsp;get it within a specified time limit, so the client stops waiting and raises a timeout error.&lt;/font&gt;&lt;/div&gt;&lt;div&gt;&lt;font style=&quot;font-size: 13px;&quot;&gt;&lt;br&gt;&lt;/font&gt;&lt;/div&gt;&lt;div&gt;&lt;font style=&quot;font-size: 13px;&quot;&gt;Types of Client Request Timeouts&amp;nbsp;&lt;/font&gt;&lt;/div&gt;&lt;div&gt;&lt;ol&gt;&lt;li&gt;Connection (TCP) Timeout&amp;nbsp;&lt;/li&gt;&lt;/ol&gt;&lt;blockquote&gt;&lt;ul&gt;&lt;li&gt;This happens when the client tries to establish a connection to the server but cannot complete the connection handshake within a specified time.&lt;/li&gt;&lt;li&gt;Example: Client can&#39;t open a TCP connection to the server fast enough.&lt;/li&gt;&lt;/ul&gt;&lt;/blockquote&gt;&lt;ol&gt;&lt;li&gt;Read Timeout (Response Timeout)&lt;/li&gt;&lt;/ol&gt;&lt;blockquote&gt;&lt;ul&gt;&lt;li&gt;After a connection is establshied and a request is sent, the client waits for the server&#39;s response. If the server does not send back data within the timeout period, the client times out.&lt;/li&gt;&lt;li&gt;Example: Server is slow or stuck processing, so the client stops waiting for a response.&lt;/li&gt;&lt;/ul&gt;&lt;/blockquote&gt;&lt;ol&gt;&lt;li&gt;Write Timeout&amp;nbsp;&lt;/li&gt;&lt;/ol&gt;&lt;blockquote&gt;&lt;ul&gt;&lt;li&gt;This occurs when the client is sending data to the server but is unable to complete sending the entire request within the timeout period.&lt;/li&gt;&lt;li&gt;Less common but relevant in large data uploads.&lt;/li&gt;&lt;/ul&gt;&lt;/blockquote&gt;&lt;div&gt;Why Timeouts Matter&amp;nbsp;&lt;/div&gt;&lt;div&gt;&lt;ul&gt;&lt;li&gt;Prevents clients from hanging indefinitely.&lt;/li&gt;&lt;li&gt;Helps manage resources efficiently on both client and server sides.&lt;/li&gt;&lt;li&gt;Improves user experience by allowing retries or showing error messages promptly.&lt;/li&gt;&lt;/ul&gt;&lt;/div&gt;&lt;/div&gt;&lt;div&gt;&lt;font&gt;&lt;br&gt;&lt;/font&gt;&lt;/div&gt;&lt;div&gt;&lt;b&gt;&lt;font style=&quot;font-size: 18px;&quot;&gt;&lt;br&gt;&lt;/font&gt;&lt;/b&gt;&lt;/div&gt;" style="text;html=1;whiteSpace=wrap;strokeColor=none;fillColor=none;align=left;verticalAlign=middle;rounded=0;" parent="1" vertex="1">
          <mxGeometry x="-200" y="40" width="1030" height="480" as="geometry" />
        </mxCell>
        <mxCell id="Ld6S8iu637Xuf0fFWyp5-33" value="&lt;div&gt;&lt;b&gt;&lt;font style=&quot;font-size: 18px;&quot;&gt;DNS Resolution Timeout&amp;nbsp;&lt;/font&gt;&lt;/b&gt;&lt;/div&gt;&lt;div&gt;&lt;b&gt;&lt;font style=&quot;font-size: 18px;&quot;&gt;&amp;nbsp;&lt;/font&gt;&lt;/b&gt;&lt;/div&gt;&lt;div&gt;DNS Resolution Timeout refers to the situation where a client (like your browser, application, or any network tool) tries to translate a domain name (e.g. example.com) into an IP address using&lt;/div&gt;&lt;div&gt;the Domain Name Szstem (DNS), but the DNS server doesnÃ¤t respond within a specified time limit.&lt;/div&gt;&lt;div&gt;&lt;font&gt;&lt;br&gt;&lt;/font&gt;&lt;/div&gt;&lt;div&gt;&lt;b&gt;&lt;font style=&quot;font-size: 18px;&quot;&gt;&lt;br&gt;&lt;/font&gt;&lt;/b&gt;&lt;/div&gt;" style="text;html=1;whiteSpace=wrap;strokeColor=none;fillColor=none;align=left;verticalAlign=middle;rounded=0;" parent="1" vertex="1">
          <mxGeometry x="-200" y="520" width="1030" height="120" as="geometry" />
        </mxCell>
        <mxCell id="GGaB-U3ST1P0PFWVwbmg-1" value="&lt;div&gt;&lt;b&gt;&lt;font style=&quot;font-size: 18px;&quot;&gt;Application Gateway Timeout&lt;/font&gt;&lt;/b&gt;&lt;/div&gt;&lt;div&gt;&lt;b&gt;&lt;font style=&quot;font-size: 18px;&quot;&gt;&amp;nbsp;&lt;/font&gt;&lt;/b&gt;&lt;/div&gt;&lt;div&gt;Application gateway timeout refers to a timeout error that occurs in an Application Gateway when the gateway doesn&#39;t retrieve a timely response from the backend server or service it&#39;s trying to reach. (A type of load balancer that manages and routes incoming client requests to backend servers or services, often with additional features like SSL termination, URL-based routing, and security filtering.&lt;/div&gt;&lt;div&gt;&lt;br&gt;&lt;/div&gt;&lt;div&gt;What does &quot;Gateway Timeout&quot; mean in this context?&lt;/div&gt;&lt;div&gt;&lt;ul&gt;&lt;li&gt;The client sends a request to the Application Gateway.&lt;/li&gt;&lt;li&gt;The gateway forwards the request to one of its backend servers or services.&lt;/li&gt;&lt;li&gt;If the backend server does not respond within a configured timeout period, the gateway stops waiting and returns a Gateway Timeout error to the client.&lt;/li&gt;&lt;/ul&gt;&lt;/div&gt;&lt;div&gt;&lt;font&gt;&lt;br&gt;&lt;/font&gt;&lt;/div&gt;&lt;div&gt;&lt;b&gt;&lt;font style=&quot;font-size: 18px;&quot;&gt;&lt;br&gt;&lt;/font&gt;&lt;/b&gt;&lt;/div&gt;" style="text;html=1;whiteSpace=wrap;strokeColor=none;fillColor=none;align=left;verticalAlign=middle;rounded=0;" vertex="1" parent="1">
          <mxGeometry x="-200" y="680" width="1030" height="240" as="geometry" />
        </mxCell>
      </root>
    </mxGraphModel>
  </diagram>
</mxfile>
